<svg xmlns="http://www.w3.org/2000/svg" xmlns:xlink="http://www.w3.org/1999/xlink" width="500" zoomAndPan="magnify" viewBox="0 0 375 374.999991" height="500" preserveAspectRatio="xMidYMid meet" version="1.0"><defs><clipPath id="409d38704e"><path d="M 68.175781 68.175781 L 306 68.175781 L 306 306.675781 L 68.175781 306.675781 Z M 68.175781 68.175781 " clip-rule="nonzero"/></clipPath></defs><g clip-path="url(#409d38704e)"><path fill="#ffffff" d="M 85.652344 68.175781 C 85.359375 68.167969 85.066406 68.191406 84.773438 68.242188 C 84.484375 68.296875 84.203125 68.382812 83.929688 68.496094 C 83.65625 68.609375 83.398438 68.75 83.15625 68.917969 C 82.914062 69.085938 82.691406 69.277344 82.488281 69.492188 C 82.285156 69.707031 82.109375 69.941406 81.957031 70.195312 C 81.804688 70.449219 81.679688 70.714844 81.582031 70.996094 C 81.488281 71.273438 81.421875 71.558594 81.386719 71.851562 C 81.347656 72.148438 81.34375 72.441406 81.371094 72.734375 C 82.371094 83.730469 87.773438 92.835938 95.476562 100.210938 C 95.328125 100.636719 95.246094 101.074219 95.238281 101.527344 C 94.898438 113.199219 89.375 118.980469 83.699219 122.519531 C 78.027344 126.058594 72.464844 126.785156 72.464844 126.785156 C 72.117188 126.832031 71.777344 126.917969 71.453125 127.046875 C 71.125 127.175781 70.820312 127.34375 70.535156 127.546875 C 70.25 127.753906 69.996094 127.992188 69.773438 128.261719 C 69.546875 128.53125 69.359375 128.824219 69.210938 129.140625 C 69.058594 129.460938 68.949219 129.789062 68.882812 130.132812 C 68.816406 130.480469 68.792969 130.828125 68.8125 131.175781 C 68.832031 131.527344 68.894531 131.871094 69 132.203125 C 69.109375 132.539062 69.253906 132.855469 69.441406 133.152344 C 79.320312 148.960938 79.164062 162.199219 76.769531 171.765625 C 74.378906 181.335938 69.773438 186.835938 69.773438 186.835938 C 69.441406 187.238281 69.191406 187.683594 69.023438 188.179688 C 68.855469 188.675781 68.785156 189.183594 68.808594 189.703125 C 68.832031 190.226562 68.949219 190.726562 69.160156 191.203125 C 69.371094 191.683594 69.660156 192.105469 70.027344 192.476562 C 81.757812 204.207031 82.226562 213.757812 80.429688 220.929688 C 78.636719 228.105469 74.210938 232.585938 74.210938 232.585938 C 73.988281 232.808594 73.796875 233.050781 73.628906 233.320312 C 73.460938 233.585938 73.324219 233.867188 73.222656 234.164062 C 73.117188 234.460938 73.050781 234.765625 73.015625 235.078125 C 72.980469 235.390625 72.980469 235.703125 73.015625 236.015625 C 73.050781 236.328125 73.121094 236.632812 73.226562 236.929688 C 73.332031 237.226562 73.46875 237.507812 73.636719 237.773438 C 73.804688 238.039062 74 238.285156 74.222656 238.507812 C 74.445312 238.730469 74.6875 238.921875 74.957031 239.089844 C 82.804688 243.996094 86.828125 248.875 88.773438 253.261719 C 90.722656 257.644531 90.71875 261.695312 89.835938 265.445312 C 88.074219 272.949219 82.582031 278.609375 82.582031 278.609375 C 82.335938 278.855469 82.125 279.128906 81.949219 279.425781 C 81.769531 279.722656 81.632812 280.035156 81.535156 280.367188 C 81.433594 280.699219 81.378906 281.035156 81.363281 281.382812 C 81.347656 281.726562 81.375 282.070312 81.445312 282.410156 C 81.511719 282.75 81.625 283.074219 81.773438 283.386719 C 81.925781 283.695312 82.109375 283.984375 82.332031 284.25 C 82.554688 284.515625 82.804688 284.75 83.085938 284.953125 C 83.363281 285.15625 83.664062 285.324219 83.988281 285.453125 C 93.867188 289.402344 99.550781 294.222656 102.789062 297.921875 C 106.03125 301.625 106.671875 303.8125 106.671875 303.8125 C 106.722656 303.960938 106.785156 304.105469 106.851562 304.246094 C 106.851562 304.25 106.851562 304.253906 106.851562 304.253906 C 106.859375 304.273438 106.867188 304.289062 106.878906 304.304688 C 106.925781 304.40625 106.976562 304.503906 107.03125 304.597656 C 107.039062 304.609375 107.042969 304.621094 107.046875 304.632812 C 107.109375 304.734375 107.175781 304.832031 107.246094 304.925781 C 107.285156 304.980469 107.324219 305.03125 107.367188 305.082031 C 107.496094 305.25 107.636719 305.40625 107.792969 305.554688 C 107.808594 305.570312 107.824219 305.582031 107.839844 305.597656 C 108.035156 305.773438 108.246094 305.933594 108.46875 306.070312 C 108.515625 306.09375 108.5625 306.121094 108.609375 306.144531 C 108.804688 306.253906 109.003906 306.34375 109.214844 306.421875 C 109.28125 306.445312 109.351562 306.464844 109.417969 306.488281 C 109.886719 306.632812 110.367188 306.695312 110.855469 306.675781 L 202.695312 306.675781 C 203.226562 306.675781 203.742188 306.578125 204.234375 306.382812 C 204.726562 306.1875 205.167969 305.910156 205.554688 305.546875 C 205.945312 305.183594 206.25 304.761719 206.480469 304.28125 C 206.707031 303.804688 206.835938 303.296875 206.875 302.769531 C 206.875 302.769531 210.847656 248.714844 184.21875 209.261719 C 186.519531 209.335938 188.851562 209.191406 191.199219 208.828125 C 192.019531 209.285156 192.84375 209.75 193.648438 210.191406 L 218.878906 236.628906 L 212.9375 255.1875 C 212.691406 255.953125 212.671875 256.722656 212.871094 257.5 C 213.070312 258.277344 213.460938 258.941406 214.039062 259.496094 C 214.621094 260.046875 215.304688 260.402344 216.089844 260.5625 C 216.878906 260.722656 217.644531 260.660156 218.394531 260.378906 L 251.199219 248.023438 C 251.464844 247.921875 251.714844 247.800781 251.953125 247.648438 C 252.195312 247.5 252.414062 247.328125 252.621094 247.132812 C 252.824219 246.9375 253.007812 246.722656 253.167969 246.492188 C 253.328125 246.261719 253.464844 246.015625 253.574219 245.757812 C 253.6875 245.496094 253.773438 245.230469 253.828125 244.953125 C 253.886719 244.675781 253.914062 244.398438 253.917969 244.117188 C 253.917969 243.832031 253.890625 243.554688 253.835938 243.277344 C 253.777344 243 253.695312 242.734375 253.585938 242.472656 L 250.089844 234.179688 L 257.089844 227.175781 L 247.128906 227.175781 L 246.363281 225.351562 L 257.089844 214.621094 L 241.824219 214.621094 L 241.253906 213.265625 L 248.722656 202.070312 L 236.53125 202.070312 L 235.84375 200.441406 C 235.832031 200.410156 235.816406 200.378906 235.804688 200.34375 L 233.539062 195.359375 C 233.601562 191.53125 235.160156 187.828125 238.238281 185.355469 C 238.242188 185.355469 238.242188 185.355469 238.246094 185.355469 C 240.605469 183.453125 243.488281 182.488281 246.371094 182.488281 C 248.933594 182.488281 251.542969 183.265625 253.78125 184.824219 C 253.78125 184.828125 253.78125 184.832031 253.78125 184.835938 L 257.089844 187.136719 L 257.089844 197.886719 L 264.984375 192.621094 L 272.242188 197.664062 L 265.460938 214.621094 L 282.1875 204.585938 L 284.910156 206.472656 L 282.195312 214.621094 L 289.558594 209.710938 L 296.148438 214.285156 C 296.382812 214.449219 296.628906 214.585938 296.894531 214.699219 C 297.15625 214.8125 297.425781 214.894531 297.707031 214.953125 C 297.988281 215.007812 298.269531 215.035156 298.554688 215.035156 C 298.84375 215.035156 299.125 215.003906 299.402344 214.945312 C 299.683594 214.882812 299.953125 214.796875 300.214844 214.683594 C 300.476562 214.566406 300.722656 214.429688 300.957031 214.261719 C 301.191406 214.097656 301.402344 213.910156 301.597656 213.699219 C 301.792969 213.492188 301.964844 213.265625 302.113281 213.019531 C 306.039062 206.554688 306.414062 198.828125 304.304688 191.136719 C 302.191406 183.441406 297.703125 175.558594 291.539062 167.65625 C 289.800781 165.429688 287.894531 163.203125 285.898438 160.980469 C 289.183594 150.28125 273.511719 124.171875 276.550781 132.574219 C 278.695312 138.5 275.511719 144.417969 272.789062 148.058594 C 270.425781 145.960938 267.960938 143.898438 265.417969 141.855469 C 265.050781 125.351562 249.773438 97.753906 253.167969 108.089844 C 255.863281 116.285156 251.824219 124.488281 248.414062 129.492188 C 245.105469 127.316406 241.75 125.183594 238.296875 123.148438 C 237.628906 122.757812 236.988281 122.441406 236.324219 122.0625 C 236.242188 121.488281 236.046875 120.953125 235.738281 120.460938 C 228.617188 108.28125 223.535156 84.09375 223.535156 84.09375 C 223.472656 83.769531 223.371094 83.457031 223.230469 83.15625 C 223.089844 82.855469 222.917969 82.574219 222.714844 82.3125 C 222.507812 82.054688 222.273438 81.820312 222.011719 81.617188 C 221.753906 81.410156 221.472656 81.238281 221.167969 81.101562 C 220.867188 80.964844 220.554688 80.863281 220.226562 80.800781 C 219.902344 80.738281 219.574219 80.714844 219.242188 80.730469 C 218.910156 80.742188 218.585938 80.796875 218.269531 80.890625 C 217.949219 80.980469 217.644531 81.109375 217.359375 81.273438 C 210.566406 85.15625 205.425781 86.15625 201.527344 85.84375 C 197.632812 85.53125 194.777344 83.945312 192.433594 81.8125 C 187.742188 77.550781 185.796875 71.207031 185.796875 71.207031 C 185.671875 70.765625 185.476562 70.359375 185.21875 69.984375 C 184.960938 69.605469 184.644531 69.28125 184.28125 69.007812 C 183.914062 68.734375 183.515625 68.527344 183.082031 68.382812 C 182.644531 68.242188 182.199219 68.171875 181.742188 68.175781 C 181.027344 68.179688 180.359375 68.359375 179.734375 68.707031 C 179.109375 69.058594 178.609375 69.535156 178.230469 70.144531 C 173.34375 77.960938 168.550781 81.636719 164.304688 83.210938 C 160.054688 84.785156 156.082031 84.386719 152.308594 83.054688 C 144.757812 80.390625 138.929688 73.820312 138.929688 73.820312 C 138.726562 73.582031 138.496094 73.371094 138.246094 73.183594 C 137.992188 72.996094 137.722656 72.839844 137.4375 72.714844 C 137.148438 72.585938 136.851562 72.492188 136.542969 72.433594 C 136.238281 72.375 135.925781 72.347656 135.613281 72.359375 C 135.300781 72.371094 134.992188 72.414062 134.6875 72.496094 C 134.382812 72.574219 134.09375 72.6875 133.816406 72.832031 C 133.539062 72.976562 133.277344 73.148438 133.039062 73.351562 C 132.800781 73.554688 132.585938 73.78125 132.398438 74.035156 C 127.613281 80.417969 120.648438 83.316406 114.050781 84.558594 C 113.8125 84.601562 113.578125 84.660156 113.347656 84.738281 C 103.917969 80.527344 95.363281 75.488281 88.316406 69.230469 C 87.558594 68.554688 86.667969 68.203125 85.652344 68.175781 Z M 180.886719 79.992188 C 182.304688 82.558594 183.957031 85.414062 186.808594 88.007812 C 190.21875 91.109375 194.945312 93.707031 200.859375 94.179688 C 205.4375 94.546875 210.78125 93.164062 216.523438 90.65625 C 217.535156 95.386719 219.890625 105.710938 224.101562 115.710938 C 208.058594 108.1875 193.429688 104.496094 180.722656 103.136719 C 162.054688 99.59375 142.683594 95.660156 125.175781 89.457031 C 128.773438 87.648438 132.308594 85.234375 135.503906 82.101562 C 138.191406 84.734375 142.527344 88.480469 149.527344 90.949219 C 154.644531 92.757812 160.871094 93.40625 167.214844 91.058594 C 171.949219 89.300781 176.507812 85.292969 180.886719 79.992188 Z M 93.605469 83.675781 C 116.832031 98.855469 147.449219 105.453125 175.777344 110.785156 C 176.246094 111 176.734375 111.125 177.25 111.160156 C 177.664062 111.195312 178.109375 111.261719 178.53125 111.300781 C 183.582031 112.242188 188.738281 113.214844 193.550781 114.128906 C 194.085938 114.242188 194.625 114.25 195.164062 114.152344 C 206.871094 117.03125 219.90625 122.042969 234.046875 130.359375 C 255.03125 142.703125 273.539062 158.183594 284.941406 172.804688 C 290.644531 180.117188 294.539062 187.210938 296.230469 193.359375 C 297.378906 197.539062 297.191406 201.027344 296.382812 204.25 L 258.5625 177.960938 C 254.894531 175.40625 250.617188 174.121094 246.371094 174.121094 C 241.625 174.121094 236.875 175.714844 233 178.835938 C 227.652344 183.128906 224.902344 189.617188 225.074219 196.136719 C 225.085938 196.699219 225.207031 197.238281 225.441406 197.753906 L 228.152344 203.746094 L 244.179688 241.722656 L 223.542969 249.492188 L 227.605469 236.816406 C 227.839844 236.089844 227.867188 235.351562 227.695312 234.605469 C 227.523438 233.859375 227.171875 233.210938 226.640625 232.660156 L 200.042969 204.757812 C 199.65625 204.152344 199.152344 203.675781 198.519531 203.328125 C 196.980469 202.484375 195.472656 201.660156 194 200.8125 C 193.4375 200.464844 192.824219 200.265625 192.164062 200.214844 C 191.5 200.160156 190.863281 200.257812 190.25 200.507812 C 174.613281 203.125 159.738281 192.921875 156.6875 177.257812 C 155.113281 169.1875 157.003906 161.292969 161.320312 155.03125 C 161.777344 154.386719 162.03125 153.675781 162.085938 152.890625 C 162.140625 152.101562 161.984375 151.363281 161.621094 150.664062 C 161.253906 149.964844 160.734375 149.414062 160.058594 149.011719 C 159.382812 148.605469 158.652344 148.410156 157.863281 148.417969 C 157.171875 148.425781 156.523438 148.59375 155.917969 148.925781 C 155.308594 149.253906 154.816406 149.707031 154.429688 150.28125 C 148.890625 158.320312 146.460938 168.539062 148.472656 178.859375 C 151.101562 192.347656 160.710938 202.730469 172.804688 207.070312 C 172.929688 207.722656 173.195312 208.3125 173.605469 208.835938 C 198.992188 241.277344 198.851562 288.496094 198.5625 298.304688 L 116.652344 298.304688 C 133.070312 257.613281 111.515625 219.234375 110.269531 217.066406 C 96.707031 184.796875 98.867188 162.566406 105.503906 147.316406 C 112.089844 132.183594 123.382812 123.746094 129.34375 120.152344 C 131.167969 120.878906 132.972656 121.636719 134.828125 122.316406 C 157.085938 130.492188 181.199219 135.746094 194.746094 140.574219 C 192.847656 146.796875 198.269531 155.292969 206.914062 158.976562 L 216.800781 147.730469 L 216.800781 160.226562 C 222.300781 160.226562 225.601562 157.726562 227.800781 152.726562 C 227.800781 150.222656 227.800781 147.734375 226.699219 146.480469 C 223.402344 145.230469 206.910156 136.476562 201.414062 133.976562 C 201.316406 133.976562 201.195312 134.050781 201.09375 134.058594 C 186.359375 127.851562 161.015625 123.011719 137.71875 114.453125 C 125.136719 109.832031 113.347656 104.203125 104.710938 97.21875 C 99.726562 93.191406 96.207031 88.625 93.605469 83.675781 Z M 103.152344 106.527344 C 108.308594 110.207031 114.132812 113.34375 120.230469 116.195312 C 113.179688 121.332031 103.847656 130.148438 97.832031 143.972656 C 90.238281 161.417969 88.320312 186.515625 102.601562 220.433594 C 102.679688 220.613281 102.769531 220.789062 102.871094 220.957031 C 102.871094 220.957031 123.964844 256.359375 109.972656 293.558594 C 109.660156 293.167969 109.433594 292.816406 109.082031 292.414062 C 105.726562 288.578125 99.828125 284.210938 91.9375 280.277344 C 94.132812 277.257812 96.644531 273.023438 97.976562 267.359375 C 99.1875 262.21875 99.183594 256.066406 96.425781 249.859375 C 94.125 244.6875 89.445312 239.660156 82.988281 234.890625 C 84.925781 232.210938 87.195312 228.394531 88.554688 222.957031 C 90.78125 214.050781 89.117188 201.746094 78.125 189.296875 C 80.015625 186.539062 82.886719 181.8125 84.894531 173.792969 C 87.460938 163.53125 87.136719 149.335938 78.976562 133.667969 C 81.609375 132.847656 84.789062 131.707031 88.128906 129.621094 C 94.628906 125.566406 101.378906 118.152344 103.152344 106.527344 Z M 139.933594 273.199219 C 137.625 273.199219 135.75 275.074219 135.75 277.386719 L 135.75 285.753906 C 135.75 288.0625 137.625 289.9375 139.933594 289.9375 C 142.242188 289.9375 144.117188 288.0625 144.117188 285.753906 L 144.117188 277.386719 C 144.117188 275.074219 142.242188 273.199219 139.933594 273.199219 Z M 160.855469 273.199219 C 158.546875 273.199219 156.671875 275.074219 156.671875 277.386719 L 156.671875 285.753906 C 156.671875 288.0625 158.546875 289.9375 160.855469 289.9375 C 163.164062 289.9375 165.039062 288.0625 165.039062 285.753906 L 165.039062 277.386719 C 165.039062 275.074219 163.164062 273.199219 160.855469 273.199219 Z M 181.777344 273.199219 C 179.464844 273.199219 177.589844 275.074219 177.589844 277.386719 L 177.589844 285.753906 C 177.589844 288.0625 179.464844 289.9375 181.777344 289.9375 C 184.085938 289.9375 185.960938 288.0625 185.960938 285.753906 L 185.960938 277.386719 C 185.960938 275.074219 184.085938 273.199219 181.777344 273.199219 Z M 181.777344 273.199219 " fill-opacity="1" fill-rule="nonzero"/></g></svg>